<?xml version="1.0" encoding="UTF-8"?>
<!DOCTYPE svg PUBLIC "-//W3C//DTD SVG 1.1//EN" "http://www.w3.org/Graphics/SVG/1.1/DTD/svg11.dtd">
<!-- Creator: CorelDRAW X7 -->
<svg xmlns="http://www.w3.org/2000/svg" xml:space="preserve" width="297mm" height="210mm" version="1.1" style="shape-rendering:geometricPrecision; text-rendering:geometricPrecision; image-rendering:optimizeQuality; fill-rule:evenodd; clip-rule:evenodd"
viewBox="0 0 29700 21000"
 xmlns:xlink="http://www.w3.org/1999/xlink">
 <defs>
  <style type="text/css">
   <![CDATA[
    .fil1 {fill:#E6E7E8}
    .fil0 {fill:#E6E7E8;fill-rule:nonzero}
   ]]>
  </style>
 </defs>
 <g id="Camada_x0020_1">
  <metadata id="CorelCorpID_0Corel-Layer"/>
  <g id="_1989260834480">
   <path class="fil0" d="M3036 14177l-408 -20 -17 355c-3,45 12,78 42,102 33,24 84,38 154,42l0 0 0 0 1 0c100,5 191,23 272,54 83,31 156,75 221,132l0 0c69,61 119,130 151,208 33,77 46,163 42,257l-25 491c-2,48 -14,92 -34,132 -21,40 -51,76 -89,108l0 0c-38,31 -79,54 -123,69 -43,14 -90,20 -140,17l-695 -34c-50,-3 -96,-13 -138,-32 -43,-19 -81,-46 -115,-81 -35,-35 -61,-74 -78,-116 -16,-42 -23,-87 -21,-135l24 -479 1 -20 20 1 473 23 20 1 -1 20 -18 345 408 20 18 -355c2,-45 -12,-78 -42,-102 -33,-25 -85,-39 -155,-42 -100,-5 -191,-23 -273,-54 -82,-31 -155,-75 -219,-132l0 0c-69,-61 -120,-130 -152,-208 -32,-77 -46,-163 -41,-257l24 -491c3,-48 14,-92 35,-132 20,-40 50,-76 88,-108l0 0c38,-31 79,-54 122,-69 44,-14 91,-20 141,-17l695 34c50,3 96,14 138,32 42,19 81,46 115,81 35,35 61,74 78,116 16,42 23,87 21,135l-24 478 -1 20 -20 -1 -473 -24 -20 -1 1 -19 17 -344zm-425 -61l447 23 20 1 -1 19 -17 344 433 21 23 -458c2,-42 -4,-82 -18,-119 -15,-36 -38,-71 -69,-102 -31,-32 -65,-56 -103,-72 -38,-17 -79,-27 -124,-29l-695 -35c-45,-2 -87,3 -126,16 -40,13 -76,33 -110,62l0 0c-34,28 -60,60 -78,95 -18,35 -28,74 -30,116l-25 491c-4,88 9,168 38,240 30,72 78,137 142,193l0 0c60,54 130,95 207,125 78,29 165,46 261,51 79,4 138,21 177,51 41,32 61,76 58,135l-19 375 -1 20 -20 -1 -447 -22 -20 -1 1 -20 17 -345 -433 -22 -23 460c-2,43 4,82 18,119 15,37 38,71 69,103 31,31 65,55 103,72 38,16 79,26 124,28l695 35c45,2 87,-3 126,-16 39,-13 76,-33 110,-61l0 0c34,-29 60,-61 78,-96 18,-35 28,-74 31,-116l24 -491c5,-88 -8,-168 -38,-240 -30,-72 -77,-136 -142,-193l0 0c-60,-54 -130,-96 -207,-125 -78,-29 -165,-46 -260,-51l0 0 0 0 -1 0c-78,-4 -137,-21 -177,-51 -41,-32 -61,-76 -58,-134l19 -376 1 -20 20 1zm1645 1586l768 39 20 1 -1 19 -22 441 -1 20 -19 -1 -1261 -64 -20 -1 1 -19 119 -2381 1 -20 20 1 1261 64 19 1 -1 19 -22 441 -1 19 -19 -1 -769 -38 -24 489 636 32 20 1 -1 20 -22 441 -1 20 -20 -1 -636 -32 -25 490zm747 77l-768 -38 -20 -1 1 -20 26 -529 1 -20 20 1 636 32 20 -402 -636 -32 -20 -1 1 -20 27 -529 1 -20 19 1 769 39 20 -401 -1221 -61 -117 2341 1221 61 20 -401zm1057 -837c20,1 39,-2 57,-7 18,-6 35,-15 51,-28l0 0c15,-12 27,-25 35,-41 8,-15 12,-31 13,-50l24 -478 -408 -21 -31 612 259 13zm69 30c-22,8 -46,11 -70,9l-279 -14 -20 -1 1 -19 32 -651 1 -20 20 1 448 22 20 1 -1 20 -25 498c-2,24 -8,47 -18,67 -11,20 -26,38 -46,53l0 0c-20,16 -41,27 -63,34zm-352 437l-41 828 -1 20 -20 -1 -472 -23 -20 -1 1 -20 119 -2380 1 -20 20 1 1044 52c49,2 95,13 138,32 42,18 80,45 115,80 35,36 61,75 77,116 17,42 24,87 21,135l-30 613c-4,81 -24,154 -59,217 -31,56 -74,106 -130,148 51,47 89,101 115,161 28,67 40,141 36,223l-35 694 -1 19 -19 -1 -473 -23 -20 -1 1 -20 34 -693c1,-19 -1,-37 -8,-53 -6,-16 -16,-32 -30,-46 -15,-14 -31,-24 -48,-32 -17,-7 -36,-11 -55,-12l-260 -13zm-80 807l42 -829 1 -20 19 1 279 14c25,1 48,7 69,16 22,9 42,22 60,39l1 1c18,18 31,38 39,59 9,22 12,45 11,69l-34 674 434 22 33 -674c4,-76 -7,-144 -33,-206 -26,-61 -66,-115 -122,-163l-20 -17 21 -14c61,-42 107,-91 138,-149 32,-58 50,-125 54,-199l31 -614c2,-42 -4,-81 -19,-118 -14,-37 -37,-71 -68,-103 -31,-31 -66,-55 -103,-72 -38,-17 -80,-26 -124,-28l-1025 -52 -117 2341 433 22zm2095 -1187c40,1 76,-10 107,-35l0 0c16,-12 27,-26 35,-41 8,-15 13,-32 14,-50l24 -479 -408 -20 -31 612 259 13zm132 -4c-40,31 -84,46 -134,43l-279 -14 -20 -1 1 -20 33 -651 1 -20 20 1 447 23 20 1 -1 20 -25 497c-1,25 -7,47 -18,68 -10,20 -25,38 -45,53l0 0zm-415 470l-42 829 -1 20 -19 -1 -473 -24 -20 -1 1 -19 120 -2381 1 -20 19 1 1044 53c50,2 96,13 138,31 43,19 81,46 116,81 34,36 60,74 77,116 16,42 23,87 21,135l-31 613c-4,81 -23,153 -58,216 -31,57 -75,106 -130,148 51,48 89,102 114,162 29,67 41,141 37,223l-35 693 -1 20 -20 -1 -473 -24 -20 -1 1 -19 35 -694c1,-18 -2,-36 -8,-52 -7,-17 -17,-32 -31,-47 -14,-13 -30,-24 -47,-31 -18,-7 -36,-12 -56,-13l-259 -13zm-80 807l41 -828 1 -20 20 1 279 14c25,1 48,6 69,15 22,10 42,23 60,40l0 0c18,19 31,39 40,60 8,22 12,45 11,69l-34 674 433 22 34 -674c4,-76 -7,-144 -33,-206 -26,-61 -67,-116 -123,-163l-19 -17 21 -15c60,-41 106,-91 138,-149 32,-58 50,-124 54,-199l30 -613c2,-42 -4,-82 -18,-118 -15,-37 -38,-72 -69,-103 -31,-32 -65,-56 -103,-72 -38,-17 -79,-27 -124,-29l-1024 -51 -117 2341 433 21zm1872 -831l186 9 -52 -823 -134 814zm206 50l-230 -12 -22 -1 3 -22 166 -1008 29 -172 11 174 64 1020 2 22 -23 -1zm-322 425l-116 462 -4 16 -16 -1 -478 -24 -24 -1 6 -23 580 -2358 4 -15 16 0 629 32 16 1 3 16 341 2403 3 24 -24 -1 -480 -24 -16 -1 -2 -16 -67 -471 -371 -19zm-150 437l116 -462 4 -16 16 1 404 20 16 1 2 16 67 471 439 22 -335 -2363 -596 -30 -571 2318 438 22zm2537 -805l-48 949 -1 20 -19 -1 -473 -23 -20 -1 1 -20 119 -2381 1 -19 20 1 473 23 19 1 -1 20 -47 949 147 8 336 -941 5 -14 15 1 480 24 26 1 -8 25 -415 1167 296 1202 6 26 -26 -1 -480 -24 -15 -1 -3 -14 -241 -970 -147 -7zm-86 928l47 -950 1 -20 20 1 181 9 15 1 4 14 241 970 438 22 -291 -1182 -2 -6 2 -6 408 -1147 -438 -22 -337 941 -5 14 -14 -1 -182 -9 -20 -1 1 -20 48 -949 -433 -22 -117 2341 433 22zm1770 -837l186 9 -52 -823 -134 814zm206 50l-231 -12 -22 -1 4 -22 166 -1008 28 -172 11 174 65 1020 1 22 -22 -1zm-322 425l-116 462 -4 16 -16 -1 -479 -24 -24 -1 6 -23 581 -2357 4 -16 16 0 629 32 16 1 2 16 341 2403 3 24 -23 -1 -480 -24 -17 -1 -2 -16 -66 -471 -371 -19zm-151 437l116 -462 4 -16 16 1 404 20 17 1 2 16 66 471 439 22 -335 -2363 -596 -30 -571 2318 438 22zm2100 -1187c40,2 75,-10 107,-35l0 0c15,-12 27,-25 35,-40 8,-15 12,-32 13,-51l24 -478 -408 -21 -30 612 259 13zm132 -3c-40,31 -84,45 -134,43l-279 -14 -20 -1 1 -20 33 -651 1 -20 20 1 447 22 20 1 -1 20 -25 498c-1,24 -7,47 -18,67 -10,20 -26,38 -45,54l0 0zm-415 470l-42 829 -1 19 -19 -1 -473 -23 -20 -1 1 -20 119 -2380 1 -20 20 1 1044 52c50,3 96,13 138,32 42,18 81,45 115,80 35,36 61,75 78,117 16,41 23,86 21,134l-31 614c-4,81 -23,153 -58,216 -31,56 -75,106 -130,148 51,47 89,101 114,161 29,67 41,142 37,223l-35 694 -1 20 -20 -1 -473 -24 -20 -1 1 -20 35 -693c1,-19 -2,-37 -8,-53 -7,-16 -17,-32 -31,-46 -15,-14 -30,-24 -48,-32 -17,-7 -35,-11 -55,-12l-259 -13zm-80 807l41 -829 1 -20 20 1 279 14c25,2 48,7 69,16 21,9 41,22 59,39l1 1c18,18 31,38 40,60 8,21 12,44 11,69l-34 673 433 22 34 -674c4,-75 -7,-144 -33,-205 -26,-62 -67,-116 -123,-164l-19 -16 21 -15c60,-42 106,-91 138,-149 32,-58 50,-125 53,-199l31 -614c2,-42 -4,-81 -18,-118 -15,-37 -38,-71 -69,-103 -31,-31 -65,-55 -103,-72 -38,-17 -79,-26 -124,-28l-1024 -52 -117 2341 433 22zm1667 -1822l-442 -22 -20 -1 1 -20 22 -440 1 -20 20 1 1392 70 20 1 -1 20 -22 440 -1 20 -19 -1 -441 -22 -96 1920 -1 20 -20 -1 -471 -24 -20 -1 1 -20 97 -1920zm-420 -61l441 22 20 1 -1 20 -96 1921 431 21 97 -1920 1 -20 19 1 441 22 20 -401 -1353 -67 -20 400zm3117 196l-407 -20 -73 1460 407 20 17 -344 1 -20 20 1 473 24 20 1 -1 19 -24 480c-2,48 -14,92 -35,132 -20,40 -50,76 -88,108l0 0c-38,31 -79,54 -123,69 -43,14 -90,20 -140,17l-695 -34c-50,-3 -96,-13 -138,-32 -42,-19 -81,-46 -115,-81 -35,-35 -61,-74 -77,-116 -17,-42 -24,-87 -22,-135l87 -1730c2,-48 14,-92 35,-132 20,-40 50,-76 88,-108l0 0c38,-31 79,-54 123,-69 44,-14 90,-20 140,-17l695 34c50,3 96,14 138,32 42,19 81,46 115,81 35,35 61,74 78,116 16,42 23,87 21,135l-24 478 -1 20 -20 -1 -473 -24 -20 -1 1 -19 17 -344zm-425 -61l447 23 20 1 -1 19 -17 344 433 21 23 -458c2,-42 -4,-82 -18,-119 -15,-36 -38,-71 -69,-102 -31,-32 -65,-56 -103,-72 -38,-17 -79,-27 -124,-29l-695 -35c-45,-2 -87,3 -126,16 -39,13 -76,33 -110,62l0 0c-34,28 -60,60 -78,95 -18,35 -28,74 -30,116l-87 1730c-2,42 4,82 19,119 14,37 37,71 68,103 31,31 65,55 103,72 38,16 79,26 124,28l695 35c45,2 87,-3 126,-16 39,-13 76,-33 110,-61l0 0c34,-29 60,-61 78,-96 18,-35 28,-74 30,-116l24 -460 -434 -22 -17 345 -1 20 -20 -1 -447 -22 -20 -1 1 -20 75 -1500 1 -20 20 1zm1079 2019l120 -2380 0 -20 20 1 473 23 20 1 -1 20 -97 1921 637 31 19 1 -1 20 -22 440 -1 20 -19 -1 -1129 -56 -20 -1 1 -20zm158 -2359l-117 2341 1089 55 20 -401 -636 -32 -20 -1 1 -20 96 -1920 -433 -22zm1685 1990l408 20 96 -1920 1 -20 19 1 473 24 20 1 -1 20 -103 2055c-2,48 -14,92 -34,132 -21,40 -50,76 -88,108l-1 0c-37,32 -78,54 -122,69 -44,14 -91,20 -141,18l-695 -35c-50,-3 -96,-13 -138,-32 -42,-19 -81,-46 -115,-81 -35,-35 -61,-74 -77,-116 -17,-42 -24,-87 -21,-135l103 -2055 1 -20 19 1 473 24 20 1 -1 20 -96 1920zm425 61l-447 -22 -20 -1 1 -20 96 -1920 -433 -22 -102 2035c-2,43 4,82 19,119 14,37 37,71 68,103 31,31 65,55 103,72 38,16 79,26 124,28l695 35c45,2 87,-3 126,-16 40,-13 76,-33 110,-61l0 0c34,-29 60,-61 78,-96 18,-35 28,-74 30,-116l102 -2035 -433 -22 -96 1920 -1 20 -20 -1zm1339 27l204 11c70,3 123,-6 158,-28 33,-20 50,-52 53,-97l11 -221c1,-19 -2,-36 -9,-52 -6,-16 -16,-31 -30,-45 -15,-14 -31,-24 -48,-32 -17,-7 -36,-11 -55,-12l-260 -13 -24 489zm202 50l-224 -11 -20 -1 1 -20 27 -529 1 -20 20 1 279 14c24,1 47,7 69,16 21,9 41,22 59,39l1 0c18,18 31,38 39,59 9,22 12,45 11,69l-11 221c-3,58 -26,101 -71,129 -42,26 -102,37 -181,33zm-129 -1510l-24 489 198 10c21,1 40,-1 58,-6 18,-6 35,-15 51,-27 16,-13 28,-27 36,-42 8,-16 13,-32 14,-50l17 -356 -350 -18zm-65 507l26 -528 1 -20 20 1 390 19 20 1 -1 20 -19 375c-1,25 -7,47 -18,67 -11,21 -26,39 -47,55l0 1c-20,15 -41,26 -63,32 -23,7 -47,10 -72,9l-218 -11 -20 -1 1 -20zm-403 -1011l983 49c50,2 97,13 140,32 42,18 81,45 116,80l0 0c35,36 61,75 77,116 17,42 24,87 21,135l-24 491c-4,75 -21,142 -51,202 -26,53 -63,100 -110,141 61,49 107,105 138,169 33,71 48,151 43,240l-11 221c-4,94 -27,178 -67,252 -39,74 -97,137 -171,191 -70,50 -148,87 -233,109 -84,23 -176,32 -276,27l-696 -35 -20 -1 1 -20 119 -2380 1 -20 20 1zm981 88l-963 -48 -118 2341 677 34c95,5 184,-4 264,-25 81,-21 154,-56 219,-103 70,-50 123,-110 160,-178 37,-69 58,-147 63,-235l11 -221c4,-82 -10,-156 -40,-221 -31,-65 -79,-121 -145,-170l-21 -15 20 -16c52,-41 91,-89 119,-144 27,-55 43,-117 46,-186l25 -491c2,-42 -4,-81 -19,-118 -14,-37 -37,-71 -68,-103 -31,-31 -66,-55 -104,-72 -39,-17 -80,-26 -126,-29zm1129 1962l768 39 20 1 -1 19 -22 441 -1 20 -20 -1 -1261 -63 -19 -1 1 -20 119 -2381 1 -19 20 1 1260 63 20 1 -1 19 -22 441 -1 20 -20 -1 -768 -39 -25 489 636 32 20 1 -1 20 -22 442 -1 19 -20 -1 -636 -31 -24 489zm746 77l-768 -38 -20 -1 1 -20 27 -529 1 -20 19 1 637 32 20 -402 -636 -32 -20 -1 1 -20 26 -529 1 -19 20 1 768 38 20 -401 -1221 -61 -117 2341 1221 61 20 -401z"/>
   <path class="fil1" d="M2883 14153l-448 -22 -18 375c-5,102 67,157 216,165 195,9 355,70 480,181 134,117 196,267 187,449l-25 491c-4,90 -43,165 -116,225 -71,60 -155,87 -249,82l-695 -34c-95,-5 -175,-41 -240,-107 -67,-67 -97,-146 -93,-236l24 -480 473 24 -19 364 448 23 19 -376c5,-102 -67,-157 -216,-165 -195,-9 -355,-69 -480,-180 -134,-118 -196,-267 -187,-450l25 -490c4,-91 43,-166 116,-226 71,-60 154,-87 249,-82l695 35c95,5 175,40 240,106 66,68 97,146 93,236l-24 479 -473 -24 18 -363zm1178 1563l788 39 -22 440 -1260 -63 119 -2380 1260 63 -22 440 -788 -39 -26 529 656 32 -22 442 -656 -33 -27 530zm1824 -760c45,2 85,-10 121,-39 35,-27 53,-62 56,-106l25 -498 -448 -22 -33 651 279 14zm-301 427l-42 848 -473 -24 120 -2380 1043 52c95,5 175,40 241,107 66,67 97,146 92,236l-30 613c-8,156 -75,277 -201,364 117,99 171,227 163,385l-35 693 -473 -23 35 -694c2,-43 -13,-81 -45,-114 -32,-30 -71,-47 -116,-49l-279 -14zm2033 -340c45,2 85,-11 120,-39 35,-27 54,-63 56,-106l25 -498 -447 -22 -33 651 279 14zm-301 426l-43 849 -472 -24 119 -2380 1044 52c95,5 175,40 240,106 66,68 97,146 93,237l-31 613c-8,155 -74,277 -200,363 116,100 171,228 163,386l-35 693 -473 -24 35 -693c2,-43 -13,-81 -45,-114 -33,-31 -71,-47 -116,-50l-279 -14zm1788 15l230 12 -64 -1020 -166 1008zm-108 436l-120 478 -478 -24 580 -2357 629 31 341 2404 -480 -24 -68 -487 -404 -21zm2383 -369l-49 970 -472 -24 119 -2380 472 24 -48 969 181 9 342 -955 480 24 -417 1172 297 1209 -479 -24 -245 -984 -181 -10zm1679 131l231 12 -65 -1020 -166 1008zm-108 436l-120 478 -478 -24 581 -2357 628 31 341 2404 -479 -24 -69 -487 -404 -21zm1964 -710c44,3 85,-10 120,-38 35,-28 54,-63 56,-106l25 -498 -448 -23 -32 651 279 14zm-301 427l-43 848 -472 -23 119 -2381 1044 52c95,5 175,41 240,107 66,67 97,146 93,236l-31 613c-8,156 -74,277 -200,364 116,99 170,227 163,385l-35 693 -473 -23 35 -694c2,-43 -13,-81 -45,-114 -33,-30 -72,-47 -116,-49l-279 -14zm1626 -1013l-461 -23 22 -441 1392 70 -22 441 -460 -23 -97 1940 -471 -24 97 -1940zm2698 135l-447 -22 -75 1499 447 23 18 -365 473 24 -24 480c-4,90 -43,165 -116,225 -71,60 -155,87 -249,82l-695 -35c-95,-4 -175,-40 -240,-106 -66,-67 -97,-146 -93,-236l87 -1730c4,-91 43,-166 115,-226 72,-60 155,-87 250,-82l695 35c95,5 175,40 240,106 66,68 97,146 93,236l-24 479 -473 -24 18 -363zm653 1978l119 -2381 473 24 -98 1940 656 33 -22 440 -1128 -56zm1802 -352l447 23 97 -1940 473 23 -103 2056c-5,90 -43,165 -115,226 -72,59 -155,86 -250,81l-695 -34c-95,-5 -175,-40 -240,-107 -66,-67 -97,-146 -93,-236l103 -2055 473 23 -97 1940zm1764 89l224 11c149,7 226,-40 231,-143l11 -221c2,-44 -13,-81 -45,-113 -32,-30 -71,-47 -116,-49l-279 -14 -26 529zm75 -1500l-26 529 218 11c46,2 86,-10 122,-38 36,-29 55,-65 57,-107l19 -375 -390 -20zm-450 -464l983 49c96,5 177,40 243,107 66,67 97,146 92,236l-24 491c-7,143 -65,258 -173,344 137,101 202,236 193,407l-11 221c-9,182 -86,325 -230,429 -136,97 -301,141 -496,131l-697 -35 120 -2380zm2090 2050l788 39 -22 440 -1261 -63 119 -2380 1261 63 -22 440 -788 -39 -27 529 656 33 -22 441 -656 -33 -26 530z"/>
   <path class="fil1" d="M12664 4136c9,87 -918,190 -1368,254 -613,63 -718,64 -1051,509 -359,385 -252,629 -386,1129 -142,529 -385,951 -175,1267 38,58 48,128 15,195 -1991,-119 -2355,1102 -1939,2103 16,106 -1302,150 -1998,24 -52,-9 -170,-95 -216,-123 -259,-295 -1654,-303 -2193,-173 -722,213 -935,1033 -962,1834 -19,559 23,1112 165,1430 100,225 159,338 318,463 -250,12 -802,-104 -834,-5 -36,71 12,123 138,119l6100 300c43,52 163,96 199,108 70,23 785,60 1682,45 10,-1 91,15 161,-24 48,-26 51,-90 53,-89 147,133 221,79 481,101 1014,73 2504,150 3606,241 3542,192 6287,447 9784,579 939,10 1804,174 1829,-10 1,-171 -153,-85 -892,-132 106,-230 486,-57 446,-2068 -22,-344 -57,-655 -124,-984 -201,-550 -455,-592 -459,-593 -294,-45 -957,-63 -1259,-37 -294,25 -487,205 -560,194 -738,-112 -2077,-250 -2255,-456 -66,-72 -63,-171 -56,-255 48,-593 -244,-1294 -865,-900 41,-359 -41,-1213 -484,-1554 -172,-132 -149,-257 -190,-257 -170,11 -341,34 -509,88 85,-265 -280,-409 -288,-429 -124,-201 159,-691 -506,-855 -103,-18 -343,-10 -343,-10 -65,-104 -127,-191 -269,-337 -216,-204 -444,-245 -444,-245 -4,-97 -31,-191 -54,-318 -241,-503 -640,-527 -1262,-598 419,-678 769,-1204 743,-2396 -42,-488 -238,-772 -497,-1045 -239,-243 -524,-420 -1032,-524 -1568,-207 -2156,1118 -2293,2184 -72,561 103,856 43,1250zm-6926 8677c747,59 1498,95 2245,154 11,124 50,241 89,346 -816,-54 -1721,-110 -2536,-164 82,-101 151,-212 202,-336zm4714 349c2747,160 5642,316 8389,476 24,98 89,200 145,290 -2808,-152 -5776,-327 -8584,-480 34,-69 47,-144 50,-286zm-2032 -2839c105,-64 169,153 101,380 -42,-78 -88,-111 -140,-96 -22,-67 8,-266 39,-284zm38 2263c120,194 150,431 -39,480 -52,13 -117,-110 -54,-138 116,-63 91,-186 93,-342zm-5849 -350c39,178 180,313 311,291 125,-25 202,-286 148,-499 -149,351 -298,355 -459,208zm244 -2243c33,-149 157,-247 266,-229 104,20 153,154 108,331 -112,-230 -244,-212 -374,-102zm19983 1484c-127,33 -351,-232 -695,-609 323,94 639,146 1112,198 -20,99 -15,196 1,291 -162,-19 -315,1 -418,120zm918 -566c380,0 760,0 1141,0 179,14 289,184 266,388 -94,-3 -212,6 -261,-7 -874,-242 -1171,-78 -1408,-8 -33,-209 16,-377 262,-373zm-8814 -4668c-566,187 -1075,487 -616,1098 221,-245 497,-428 835,-574 -144,-218 -179,-326 -219,-524zm553 -184c636,-173 1164,-301 1191,462 -310,-41 -632,-21 -1004,76 -25,-271 -95,-370 -187,-538zm589 -301c-528,76 -994,208 -1688,527 -212,98 -184,12 -89,-64 335,-267 1080,-575 1767,-547 205,8 137,66 10,84zm-1706 1802c53,-69 173,-180 242,-233 -17,143 -1,304 55,478 -83,-7 -292,-210 -297,-245zm766 -1392l128 -43c50,-17 104,10 121,60l0 0c17,50 -10,104 -60,121l-128 43c-50,17 -104,-10 -121,-60l0 0c-17,-50 10,-104 60,-121zm-6267 4072c465,-19 926,-16 1383,6 17,149 1,430 -62,642 -674,25 -1042,108 -1271,360 -17,-336 -33,-672 -50,-1008zm14342 3559c-604,-20 -956,-29 -1371,-65 -51,201 -204,319 -299,417 520,49 1358,66 1897,69 -140,-142 -213,-265 -227,-421zm-11837 -3486c105,211 882,407 1170,491 245,85 1016,202 1243,418 47,45 41,152 -36,177 -378,72 -720,-206 -1421,53 -333,121 -874,323 -972,548 -21,169 485,265 1253,248 37,-5 47,15 42,48l18 218c-2,249 -1411,-142 -1502,-227 -100,-52 -173,-315 -173,-315 -42,-20 -296,157 -197,390 332,706 6777,1041 10863,1157 1325,38 2751,107 3283,61 169,-14 299,-51 344,-195 130,-443 49,-931 -1,-1404 -338,133 -630,267 -1357,340 -37,4 -38,-13 -36,-36 10,-124 13,-207 16,-272 2,-47 14,-64 57,-67l592 -71c223,-61 675,-83 648,-336 17,-165 -1349,-298 -1840,42 -546,289 -579,242 -1049,-205 -361,-472 -1475,-785 -2030,-755 -157,9 -153,75 -209,177 -807,1325 -1500,583 -2155,-218 -167,-296 -1527,-219 -1818,-57 -390,191 -513,480 -950,522 -794,52 -614,89 -1876,-501 -483,-189 -855,-441 -1465,-437 -122,1 -586,29 -442,206zm-3289 2470c-442,7 -4076,-188 -4450,-349 -613,-162 -523,-2463 11,-2498 921,-107 3969,118 4565,232 -221,988 -227,1899 -126,2615zm11600 -3191c-164,6 51,-422 -144,-816 -162,-261 -300,-306 -222,-423 61,-119 251,-56 343,47 197,225 371,1030 23,1192zm-11449 59c-356,-129 -854,-1712 907,-1839 121,0 519,5 570,50 131,113 48,448 -14,441 -147,-19 -157,91 -150,134 0,0 -435,-37 -470,3 -81,92 -256,415 -150,789 147,300 199,358 639,364 426,6 322,178 -313,63 -276,-49 -700,-38 -844,-22 -83,9 -9,77 -175,17zm4537 -873c115,-257 307,-609 667,-668 715,-91 683,296 842,479 148,166 167,166 312,386 285,432 332,196 450,537 70,197 314,177 498,480 19,31 28,73 -22,73 -246,86 -235,134 -341,357 -84,125 -172,108 -244,30 -92,-67 -130,-176 -207,-292 -84,-126 -174,-227 -159,-311 81,-317 -13,-650 -137,-664 -231,-5 -221,319 -275,257 -17,-349 -41,-494 80,-604 -87,-114 -188,-218 -361,-269 -31,1 -54,69 -68,211 -39,104 -182,-104 -178,-288 4,-249 2,-289 -102,-289 -202,-6 -142,281 -148,906 26,71 90,-2 141,-127 87,-40 -75,552 214,573 113,-6 3,-518 107,-506 17,2 47,6 48,49l7 101 5 642c136,73 278,138 417,337 80,126 281,394 153,437 -202,63 -173,-232 -227,-249 -230,-82 -44,430 -125,272 -152,-306 -189,-706 -370,-687 -156,26 -155,247 -140,489 -248,-70 -252,-172 -353,-338 77,-296 352,-507 105,-820 -105,-164 -121,-171 -337,-66 -52,-319 50,-443 -252,-438zm2323 -711c-187,-258 -361,-501 -186,-857 271,463 1036,919 880,1333 -37,99 -154,107 -265,38 -187,-117 -273,-320 -429,-514zm2079 765c275,280 666,553 826,1379 -296,-288 -442,-417 -644,-521 -160,-82 -323,-98 -323,-98 -138,-544 -84,-828 -849,-788 -173,-1293 -1216,-1386 -1010,-1831 71,-149 778,-208 1444,-197 573,9 1120,52 1200,153 583,476 835,728 902,1197 43,300 155,537 429,1076 1056,1964 -599,1931 -953,832 -66,-205 -287,-735 -449,-1016 -293,-512 -636,-694 -736,-622 -180,129 78,350 163,436zm-6589 -1784c-347,-161 -508,-171 -598,-435 -101,-254 227,-476 386,-561 254,532 699,505 737,397 42,-80 -232,-198 -339,-278 -49,-37 -2,-86 53,-75 231,48 560,335 1106,870 195,191 162,725 39,660 -313,-87 -618,-123 -657,122 -18,172 233,357 598,296 608,-161 1053,-38 986,39 -82,99 -489,680 -469,520 46,-435 -110,-202 -353,-190 -514,-18 -1138,-294 -1241,-225 -135,173 287,368 193,496 -131,96 -235,-27 -292,-546l-129 -8 -30 324c-11,99 -123,48 -228,-120l-156 -2c-78,-1 76,-372 3,-770 -510,-65 -461,-623 301,-323 197,77 254,-115 90,-191zm3330 -728c5,-541 7,-912 7,-912 911,113 1359,-117 1669,-478 188,51 528,349 634,625 -589,-56 -1768,287 -2310,765zm-2508 -795c47,-137 386,138 558,-203 23,-53 -30,-218 -159,-370 -96,-113 -160,-283 -57,-319 150,-52 206,354 240,468 67,219 97,253 396,444 174,146 346,173 588,332 755,472 3,1304 431,1915 -317,18 -681,-18 -970,-32 -183,-8 -192,-172 -195,-221 -31,-461 -51,-773 -157,-977 -113,-295 -126,-496 -154,-794 -6,-57 -26,-91 -85,-90l-84 2c-153,3 10,333 -125,276 -154,-66 -260,-373 -227,-431zm-351 -894c103,-3 190,-28 273,-60 130,124 556,605 380,677l-324 65c-135,12 -253,-60 -205,-202 87,76 81,122 269,122 268,-23 116,-277 48,-234 -193,62 -470,-166 -441,-368zm5183 -1880c-355,282 -1084,171 -1534,-27 -163,-71 -627,-383 -747,-514 -350,-379 -557,-1052 52,-1240 -71,741 216,1088 663,1364 340,217 775,235 1004,190 242,-47 288,-69 563,-181l-1 408zm-516 -418c-240,39 -516,-24 -734,-106 -330,-123 -607,-381 -718,-634 -71,-164 -100,-333 -74,-502 20,-126 63,-218 290,-237 547,-45 1334,434 1623,973 171,319 -123,464 -387,506zm-96 1961c-950,-16 -1523,-148 -1879,-438 -620,-507 -527,-964 -648,-1899 -393,658 -390,1599 40,2228 308,450 684,981 1595,926 450,-25 894,-582 892,-817zm-1644 -156c116,95 281,151 446,178 -42,189 -438,255 -446,-178zm782 257c138,25 280,54 403,61 -9,170 -365,323 -403,-61z"/>
   <path class="fil1" d="M10983 17223l-21 443 -137 -6 33 -689 190 9 90 451 22 -446 136 7 -33 689 -189 -9 -91 -449zm561 -63l-20 412 123 6 20 -413 -123 -5zm163 -114c26,1 48,11 66,29 18,19 27,40 26,65l-23 476c-1,24 -12,45 -32,61 -20,17 -42,25 -68,23l-191 -9c-26,-1 -48,-11 -67,-29 -18,-18 -26,-40 -25,-65l23 -475c1,-25 11,-46 31,-62 20,-17 43,-24 69,-23l191 9zm367 548c42,-231 78,-407 107,-525l131 6 -157 648 -173 -8 -96 -660 132 6c18,121 36,299 56,533zm389 -110l63 3 -19 -281 -44 278zm-30 119l-32 132 -132 -6 158 -648 173 8 95 660 -132 -6 -19 -134 -111 -6zm685 -396l-9 188 65 3c43,2 65,-12 67,-41l7 -144 -130 -6zm-130 -134l302 14c27,1 50,12 69,31 19,19 28,42 27,68l-8 177c-3,53 -25,94 -67,124 -39,28 -87,41 -143,38l-65 -3 -12 246 -136 -7 33 -688zm691 368c12,0 23,-3 33,-11 10,-8 15,-17 15,-29l7 -137 -123 -6 -9 179 77 4zm-82 117l-11 233 -130 -6 31 -654 287 14c26,1 48,11 66,29 18,18 27,40 26,65l-8 168c-2,43 -21,76 -55,100 32,27 47,62 45,106l-9 190 -131 -6 9 -190c1,-12 -3,-23 -12,-31 -9,-9 -19,-14 -32,-14l-76 -4zm518 4l63 3 -18 -280 -45 277zm-30 120l-32 132 -132 -7 158 -648 173 9 95 660 -132 -7 -19 -134 -111 -5zm410 -382l-127 -6 6 -121 383 19 -6 121 -126 -6 -26 533 -129 -6 25 -534zm441 302l63 3 -18 -281 -45 278zm-29 119l-33 132 -132 -6 159 -648 172 8 96 660 -132 -6 -20 -134 -110 -6zm851 -96l-306 -15 5 -115 306 15 -5 115zm535 -78c13,0 25,-3 35,-12 10,-8 16,-18 16,-30l7 -144 -129 -6 -9 188 80 4zm-86 123l-12 246 -137 -7 33 -688 302 14c27,1 51,12 70,31 19,19 28,42 26,68l-8 177c-2,45 -21,80 -58,106 34,28 50,65 48,111l-10 200 -137 -6 10 -201c0,-12 -4,-23 -13,-33 -10,-8 -21,-13 -34,-14l-80 -4zm634 -286l-130 -6 -5 109c-1,29 19,45 63,47 56,3 102,20 139,52 38,34 56,77 54,130l-7 142c-1,26 -12,48 -33,65 -21,17 -45,25 -72,24l-201 -10c-28,-1 -51,-11 -70,-30 -19,-20 -28,-42 -27,-68l7 -139 136 6 -5 106 130 6 5 -109c1,-29 -19,-45 -63,-47 -56,-3 -102,-20 -139,-52 -38,-34 -56,-77 -54,-130l7 -142c1,-26 12,-48 33,-65 21,-18 45,-26 72,-24l202 9c27,2 50,12 69,31 19,19 28,42 27,68l-7 139 -136 -7 5 -105z"/>
  </g>
 </g>
</svg>
